#N canvas 0 4 1920 966 12;
#X obj 358 264 netreceive -u -b 11111;
#X obj 354 334 oscparse;
#X obj 302 422 list trim;
#X obj 354 515 route pokemonStats;
#X floatatom 1814 751 5 0 0 0 - - - 0;
#X floatatom 1198 600 5 0 0 0 - - - 0;
#X floatatom 1399 527 5 0 0 0 - - - 0;
#X obj 432 605 unpack s f f f;
#X obj 179 714 print;
#X obj 215 847 select Grass\ Poison;
#X obj 391 852 select Fire\ ;
#X obj 507 851 select Water Ground\ ;
#X obj 911 872 select Normal\ Flying;
#X obj 726 866 select Grass\ Poison;
#X obj 1122 881 select Water\ Ice;
#X obj 1323 872 select Bug\ Poison;
#X obj 1512 875 select Normal\ ;
#X obj 1675 859 select Electric\ ;
#X obj 600 299 noteout;
#X msg 625 140 127;
#X msg 715 157 10;
#X obj 682 42 bng 19 250 50 0 empty empty empty 0 -10 0 12 #fcfcfc #000000 #000000;
#X msg 548 154 70;
#X obj 18 1099 noise~;
#X obj 20 1145 *~ 1;
#X obj -58 1201 hip~ 8000;
#X obj -83 1291 *~ 0.1;
#X obj 19 1179 bp~ 150 4;
#X obj 20 1217 *~ 20;
#X obj 18 1267 clip~ -0.9 0.9;
#X obj 37 1340 *~;
#X obj 43 1381 *~ 1;
#X obj 47 1428 dac~;
#X floatatom 226 1338 5 0 0 0 - - - 0;
#X obj 185 1266 line;
#X msg 357 1211 0 300;
#X obj 347 1150 delay 50;
#X msg 239 1155 0.25 50;
#X obj 253 1029 delay 5;
#X msg 160 1068 1 5;
#X obj 211 986 bng 19 250 50 0 empty empty empty 0 -10 0 12 #fcfcfc #000000 #000000;
#X obj 243 1098 bng 19 250 50 0 empty empty empty 0 -10 0 12 #fcfcfc #000000 #000000;
#X obj 359 1180 bng 19 250 50 0 empty empty empty 0 -10 0 12 #fcfcfc #000000 #000000;
#X obj 588 1394 noteout;
#X msg 613 1235 127;
#X msg 703 1252 10;
#X obj 633 1121 bng 19 250 50 0 empty empty empty 0 -10 0 12 #fcfcfc #000000 #000000;
#X msg 536 1249 70;
#X obj 871 1280 noteout;
#X obj 896 1160 bng 19 250 50 0 empty empty empty 0 -10 0 12 #fcfcfc #000000 #000000;
#X msg 886 1231 127;
#X msg 929 1231 10;
#X obj 1028 1283 noteout;
#X obj 1053 1163 bng 19 250 50 0 empty empty empty 0 -10 0 12 #fcfcfc #000000 #000000;
#X msg 1043 1234 127;
#X msg 1086 1234 10;
#X obj 1182 1284 noteout;
#X obj 1207 1164 bng 19 250 50 0 empty empty empty 0 -10 0 12 #fcfcfc #000000 #000000;
#X msg 1197 1235 127;
#X msg 1240 1235 10;
#X msg 842 1232 47;
#X msg 999 1235 49;
#X msg 1153 1236 51;
#X obj 2394 1034 noteout;
#X obj 2419 914 bng 19 250 50 0 empty empty empty 0 -10 0 12 #fcfcfc #000000 #000000;
#X msg 2409 985 127;
#X msg 2452 985 10;
#X obj 2535 1029 noteout;
#X obj 2560 909 bng 19 250 50 0 empty empty empty 0 -10 0 12 #fcfcfc #000000 #000000;
#X msg 2550 980 127;
#X msg 2593 980 10;
#X obj 2372 1327 noteout;
#X obj 2397 1207 bng 19 250 50 0 empty empty empty 0 -10 0 12 #fcfcfc #000000 #000000;
#X msg 2387 1278 127;
#X msg 2430 1278 10;
#X obj 2500 1326 noteout;
#X obj 2525 1206 bng 19 250 50 0 empty empty empty 0 -10 0 12 #fcfcfc #000000 #000000;
#X msg 2515 1277 127;
#X msg 2558 1277 10;
#X msg 2365 986 68;
#X msg 2506 981 70;
#X msg 2471 1278 78;
#X obj 2394 1138 metro 500;
#X floatatom 2435 1088 5 0 0 0 - - - 0;
#X obj 2379 1085 tgl 19 0 empty empty empty 0 -10 0 12 #fcfcfc #000000 #000000 0 1;
#X obj 2533 1141 metro 500;
#X floatatom 2574 1091 5 0 0 0 - - - 0;
#X obj 2518 1088 tgl 19 0 empty empty empty 0 -10 0 12 #fcfcfc #000000 #000000 0 1;
#X obj 2404 1044 noteout;
#X obj 2429 924 bng 19 250 50 0 empty empty empty 0 -10 0 12 #fcfcfc #000000 #000000;
#X msg 2419 995 127;
#X msg 2462 995 10;
#X obj 2545 1039 noteout;
#X obj 2570 919 bng 19 250 50 0 empty empty empty 0 -10 0 12 #fcfcfc #000000 #000000;
#X msg 2560 990 127;
#X msg 2603 990 10;
#X obj 2382 1337 noteout;
#X obj 2407 1217 bng 19 250 50 0 empty empty empty 0 -10 0 12 #fcfcfc #000000 #000000;
#X msg 2397 1288 127;
#X msg 2440 1288 10;
#X obj 2510 1336 noteout;
#X obj 2535 1216 bng 19 250 50 0 empty empty empty 0 -10 0 12 #fcfcfc #000000 #000000;
#X msg 2525 1287 127;
#X msg 2568 1287 10;
#X msg 2375 996 68;
#X msg 2516 991 70;
#X msg 2481 1288 78;
#X obj 2404 1148 metro 500;
#X floatatom 2445 1098 5 0 0 0 - - - 0;
#X obj 2389 1095 tgl 19 0 empty empty empty 0 -10 0 12 #fcfcfc #000000 #000000 0 1;
#X obj 2543 1151 metro 500;
#X floatatom 2584 1101 5 0 0 0 - - - 0;
#X obj 2528 1098 tgl 19 0 empty empty empty 0 -10 0 12 #fcfcfc #000000 #000000 0 1;
#X obj 2414 1054 noteout;
#X obj 2439 934 bng 19 250 50 0 empty empty empty 0 -10 0 12 #fcfcfc #000000 #000000;
#X msg 2429 1005 127;
#X msg 2472 1005 10;
#X obj 2555 1049 noteout;
#X obj 2580 929 bng 19 250 50 0 empty empty empty 0 -10 0 12 #fcfcfc #000000 #000000;
#X msg 2570 1000 127;
#X msg 2613 1000 10;
#X obj 2392 1347 noteout;
#X obj 2417 1227 bng 19 250 50 0 empty empty empty 0 -10 0 12 #fcfcfc #000000 #000000;
#X msg 2407 1298 127;
#X msg 2450 1298 10;
#X obj 2520 1346 noteout;
#X obj 2545 1226 bng 19 250 50 0 empty empty empty 0 -10 0 12 #fcfcfc #000000 #000000;
#X msg 2535 1297 127;
#X msg 2578 1297 10;
#X msg 2385 1006 68;
#X msg 2526 1001 70;
#X msg 2491 1298 78;
#X obj 2414 1158 metro 500;
#X floatatom 2455 1108 5 0 0 0 - - - 0;
#X obj 2399 1105 tgl 19 0 empty empty empty 0 -10 0 12 #fcfcfc #000000 #000000 0 1;
#X obj 2553 1161 metro 500;
#X floatatom 2594 1111 5 0 0 0 - - - 0;
#X obj 2538 1108 tgl 19 0 empty empty empty 0 -10 0 12 #fcfcfc #000000 #000000 0 1;
#X obj 2424 1064 noteout;
#X obj 2449 944 bng 19 250 50 0 empty empty empty 0 -10 0 12 #fcfcfc #000000 #000000;
#X msg 2439 1015 127;
#X msg 2482 1015 10;
#X obj 2565 1059 noteout;
#X obj 2590 939 bng 19 250 50 0 empty empty empty 0 -10 0 12 #fcfcfc #000000 #000000;
#X msg 2580 1010 127;
#X msg 2623 1010 10;
#X obj 2402 1357 noteout;
#X obj 2427 1237 bng 19 250 50 0 empty empty empty 0 -10 0 12 #fcfcfc #000000 #000000;
#X msg 2417 1308 127;
#X msg 2460 1308 10;
#X obj 2530 1356 noteout;
#X obj 2555 1236 bng 19 250 50 0 empty empty empty 0 -10 0 12 #fcfcfc #000000 #000000;
#X msg 2545 1307 127;
#X msg 2588 1307 10;
#X msg 2395 1016 68;
#X msg 2536 1011 70;
#X msg 2501 1308 78;
#X obj 2424 1168 metro 500;
#X floatatom 2465 1118 5 0 0 0 - - - 0;
#X obj 2409 1115 tgl 19 0 empty empty empty 0 -10 0 12 #fcfcfc #000000 #000000 0 1;
#X obj 2563 1171 metro 500;
#X floatatom 2604 1121 5 0 0 0 - - - 0;
#X obj 2548 1118 tgl 19 0 empty empty empty 0 -10 0 12 #fcfcfc #000000 #000000 0 1;
#X obj 1363 1265 noteout;
#X obj 1388 1145 bng 19 250 50 0 empty empty empty 0 -10 0 12 #fcfcfc #000000 #000000;
#X msg 1378 1216 127;
#X msg 1421 1216 10;
#X obj 1517 1266 noteout;
#X obj 1542 1146 bng 19 250 50 0 empty empty empty 0 -10 0 12 #fcfcfc #000000 #000000;
#X msg 1532 1217 127;
#X msg 1575 1217 10;
#X obj 1660 1265 noteout;
#X obj 1685 1145 bng 19 250 50 0 empty empty empty 0 -10 0 12 #fcfcfc #000000 #000000;
#X msg 1675 1216 127;
#X msg 1718 1216 10;
#X msg 1334 1215 67;
#X msg 1488 1218 68;
#X msg 1631 1217 70;
#X obj 813 1430 noteout;
#X obj 794 1271 bng 19 250 50 0 empty empty empty 0 -10 0 12 #fcfcfc #000000 #000000;
#X msg 828 1381 127;
#X msg 871 1381 10;
#X msg 784 1382 55;
#X connect 0 0 1 0;
#X connect 1 0 2 0;
#X connect 2 0 3 0;
#X connect 3 0 7 0;
#X connect 7 0 8 0;
#X connect 7 0 9 0;
#X connect 7 0 10 0;
#X connect 7 0 11 0;
#X connect 7 0 12 0;
#X connect 7 0 13 0;
#X connect 7 0 14 0;
#X connect 7 0 15 0;
#X connect 7 0 16 0;
#X connect 7 0 17 0;
#X connect 7 1 4 0;
#X connect 7 2 5 0;
#X connect 7 3 6 0;
#X connect 9 0 40 0;
#X connect 10 0 49 0;
#X connect 11 0 53 0;
#X connect 12 0 179 0;
#X connect 13 0 57 0;
#X connect 14 0 46 0;
#X connect 15 0 164 0;
#X connect 16 0 168 0;
#X connect 17 0 172 0;
#X connect 19 0 18 1;
#X connect 20 0 18 2;
#X connect 21 0 22 0;
#X connect 21 0 19 0;
#X connect 21 0 20 0;
#X connect 22 0 18 0;
#X connect 23 0 24 0;
#X connect 23 0 25 0;
#X connect 24 0 27 0;
#X connect 25 0 26 0;
#X connect 26 0 29 0;
#X connect 27 0 28 0;
#X connect 28 0 29 0;
#X connect 29 0 30 0;
#X connect 30 0 31 0;
#X connect 31 0 32 0;
#X connect 31 0 32 1;
#X connect 33 0 30 1;
#X connect 34 0 33 0;
#X connect 35 0 34 0;
#X connect 36 0 42 0;
#X connect 37 0 34 0;
#X connect 38 0 41 0;
#X connect 39 0 34 0;
#X connect 40 0 39 0;
#X connect 40 0 38 0;
#X connect 41 0 37 0;
#X connect 41 0 36 0;
#X connect 42 0 35 0;
#X connect 44 0 43 1;
#X connect 45 0 43 2;
#X connect 46 0 47 0;
#X connect 46 0 44 0;
#X connect 46 0 45 0;
#X connect 47 0 43 0;
#X connect 49 0 60 0;
#X connect 49 0 50 0;
#X connect 49 0 51 0;
#X connect 50 0 48 1;
#X connect 51 0 48 2;
#X connect 53 0 61 0;
#X connect 53 0 54 0;
#X connect 53 0 55 0;
#X connect 54 0 52 1;
#X connect 55 0 52 2;
#X connect 57 0 62 0;
#X connect 57 0 58 0;
#X connect 57 0 59 0;
#X connect 58 0 56 1;
#X connect 59 0 56 2;
#X connect 60 0 48 0;
#X connect 61 0 52 0;
#X connect 62 0 56 0;
#X connect 64 0 79 0;
#X connect 64 0 65 0;
#X connect 64 0 66 0;
#X connect 65 0 63 1;
#X connect 66 0 63 2;
#X connect 68 0 80 0;
#X connect 68 0 69 0;
#X connect 68 0 70 0;
#X connect 69 0 67 1;
#X connect 70 0 67 2;
#X connect 72 0 73 0;
#X connect 72 0 74 0;
#X connect 73 0 71 1;
#X connect 74 0 71 2;
#X connect 76 0 81 0;
#X connect 76 0 77 0;
#X connect 76 0 78 0;
#X connect 77 0 75 1;
#X connect 78 0 75 2;
#X connect 79 0 63 0;
#X connect 80 0 67 0;
#X connect 81 0 75 0;
#X connect 82 0 72 0;
#X connect 83 0 82 0;
#X connect 84 0 82 0;
#X connect 85 0 76 0;
#X connect 86 0 85 0;
#X connect 87 0 85 0;
#X connect 89 0 104 0;
#X connect 89 0 90 0;
#X connect 89 0 91 0;
#X connect 90 0 88 1;
#X connect 91 0 88 2;
#X connect 93 0 105 0;
#X connect 93 0 94 0;
#X connect 93 0 95 0;
#X connect 94 0 92 1;
#X connect 95 0 92 2;
#X connect 97 0 98 0;
#X connect 97 0 99 0;
#X connect 98 0 96 1;
#X connect 99 0 96 2;
#X connect 101 0 106 0;
#X connect 101 0 102 0;
#X connect 101 0 103 0;
#X connect 102 0 100 1;
#X connect 103 0 100 2;
#X connect 104 0 88 0;
#X connect 105 0 92 0;
#X connect 106 0 100 0;
#X connect 107 0 97 0;
#X connect 108 0 107 0;
#X connect 109 0 107 0;
#X connect 110 0 101 0;
#X connect 111 0 110 0;
#X connect 112 0 110 0;
#X connect 114 0 129 0;
#X connect 114 0 115 0;
#X connect 114 0 116 0;
#X connect 115 0 113 1;
#X connect 116 0 113 2;
#X connect 118 0 130 0;
#X connect 118 0 119 0;
#X connect 118 0 120 0;
#X connect 119 0 117 1;
#X connect 120 0 117 2;
#X connect 122 0 123 0;
#X connect 122 0 124 0;
#X connect 123 0 121 1;
#X connect 124 0 121 2;
#X connect 126 0 131 0;
#X connect 126 0 127 0;
#X connect 126 0 128 0;
#X connect 127 0 125 1;
#X connect 128 0 125 2;
#X connect 129 0 113 0;
#X connect 130 0 117 0;
#X connect 131 0 125 0;
#X connect 132 0 122 0;
#X connect 133 0 132 0;
#X connect 134 0 132 0;
#X connect 135 0 126 0;
#X connect 136 0 135 0;
#X connect 137 0 135 0;
#X connect 139 0 154 0;
#X connect 139 0 140 0;
#X connect 139 0 141 0;
#X connect 140 0 138 1;
#X connect 141 0 138 2;
#X connect 143 0 155 0;
#X connect 143 0 144 0;
#X connect 143 0 145 0;
#X connect 144 0 142 1;
#X connect 145 0 142 2;
#X connect 147 0 148 0;
#X connect 147 0 149 0;
#X connect 148 0 146 1;
#X connect 149 0 146 2;
#X connect 151 0 156 0;
#X connect 151 0 152 0;
#X connect 151 0 153 0;
#X connect 152 0 150 1;
#X connect 153 0 150 2;
#X connect 154 0 138 0;
#X connect 155 0 142 0;
#X connect 156 0 150 0;
#X connect 157 0 147 0;
#X connect 158 0 157 0;
#X connect 159 0 157 0;
#X connect 160 0 151 0;
#X connect 161 0 160 0;
#X connect 162 0 160 0;
#X connect 164 0 175 0;
#X connect 164 0 165 0;
#X connect 164 0 166 0;
#X connect 165 0 163 1;
#X connect 166 0 163 2;
#X connect 168 0 176 0;
#X connect 168 0 169 0;
#X connect 168 0 170 0;
#X connect 169 0 167 1;
#X connect 170 0 167 2;
#X connect 172 0 177 0;
#X connect 172 0 173 0;
#X connect 172 0 174 0;
#X connect 173 0 171 1;
#X connect 174 0 171 2;
#X connect 175 0 163 0;
#X connect 176 0 167 0;
#X connect 177 0 171 0;
#X connect 179 0 182 0;
#X connect 179 0 180 0;
#X connect 179 0 181 0;
#X connect 180 0 178 1;
#X connect 181 0 178 2;
#X connect 182 0 178 0;
